<svg width="24" height="24" viewBox="0 0 24 24" fill="none" xmlns="http://www.w3.org/2000/svg">
<path d="M12 0.959961C5.91218 0.959961 0.960022 5.9126 0.960022 12C0.960022 18.0873 5.91218 23.04 12 23.04C18.0879 23.04 23.04 18.0873 23.04 12C23.04 5.9126 18.0879 0.959961 12 0.959961ZM3.36002 12C3.36002 10.0502 4.0181 8.25596 5.11202 6.80876L17.1912 18.888C15.744 19.9819 13.9498 20.64 12 20.64C7.23602 20.64 3.36002 16.764 3.36002 12ZM18.888 17.1912L6.80882 5.11196C8.25602 4.01804 10.0503 3.35996 12 3.35996C16.764 3.35996 20.64 7.23596 20.64 12C20.64 13.9497 19.9819 15.744 18.888 17.1912Z"/>
</svg>
