<svg width="24" height="24" viewBox="0 0 24 24" fill="none" xmlns="http://www.w3.org/2000/svg">
<path d="M11.9999 0C11.113 0 10.3874 0.61875 10.1699 1.44H4.31988C3.52676 1.44 2.87988 2.08687 2.87988 2.88V21.6C2.87988 22.3931 3.52676 23.04 4.31988 23.04H19.6799C20.473 23.04 21.1199 22.3931 21.1199 21.6V2.88C21.1199 2.08687 20.473 1.44 19.6799 1.44H15.8699C15.8605 1.44 15.8493 1.44 15.8399 1.44H13.8299C13.6124 0.61875 12.8868 0 11.9999 0ZM11.9999 0.96C12.5361 0.96 12.9599 1.38375 12.9599 1.92C12.9599 2.18438 13.1755 2.4 13.4399 2.4H15.3599V3.84H8.63988V2.4H10.5599C10.8243 2.4 11.0399 2.18438 11.0399 1.92C11.0399 1.38375 11.4636 0.96 11.9999 0.96ZM17.1899 8.175C17.3099 8.15063 17.4393 8.16188 17.5499 8.235C17.7711 8.38125 17.8311 8.68875 17.6849 8.91L15.7649 11.79C15.7499 11.8125 15.7218 11.8313 15.7049 11.85C15.6993 11.8556 15.7105 11.8594 15.7049 11.865C15.703 11.8669 15.6918 11.8631 15.6899 11.865C15.6486 11.9044 15.6055 11.9325 15.5549 11.955C15.5436 11.9606 15.5361 11.9663 15.5249 11.97C15.4743 11.9888 15.4143 12 15.3599 12C15.3055 12 15.2474 11.9888 15.1949 11.97C15.1799 11.9644 15.1649 11.9475 15.1499 11.94C15.1311 11.9306 15.1086 11.9381 15.0899 11.925C15.0768 11.9156 15.073 11.8913 15.0599 11.88C15.0468 11.8706 15.0261 11.8763 15.0149 11.865L13.5749 10.425C13.3874 10.2375 13.3874 9.9225 13.5749 9.735C13.7624 9.5475 14.0774 9.5475 14.2649 9.735L15.2849 10.77L16.8749 8.37C16.948 8.25937 17.0699 8.19938 17.1899 8.175ZM6.71988 9.6H11.5199C11.7861 9.6 11.9999 9.81563 11.9999 10.08C11.9999 10.3444 11.7861 10.56 11.5199 10.56H6.71988C6.45363 10.56 6.23988 10.3444 6.23988 10.08C6.23988 9.81563 6.45363 9.6 6.71988 9.6ZM17.1899 14.415C17.3099 14.3906 17.4393 14.4019 17.5499 14.475C17.7711 14.6213 17.8311 14.9288 17.6849 15.15L15.7649 18.03C15.7499 18.0525 15.7218 18.0713 15.7049 18.09C15.6993 18.0956 15.7105 18.0994 15.7049 18.105C15.703 18.1069 15.6918 18.1031 15.6899 18.105C15.6486 18.1444 15.6055 18.1725 15.5549 18.195C15.5436 18.2006 15.5361 18.2063 15.5249 18.21C15.4743 18.2288 15.4143 18.24 15.3599 18.24C15.3055 18.24 15.2474 18.2288 15.1949 18.21C15.1799 18.2044 15.1649 18.1875 15.1499 18.18C15.1311 18.1706 15.1086 18.1781 15.0899 18.165C15.0768 18.1556 15.073 18.1313 15.0599 18.12C15.0468 18.1106 15.0261 18.1163 15.0149 18.105L13.5749 16.665C13.3874 16.4775 13.3874 16.1625 13.5749 15.975C13.7624 15.7875 14.0774 15.7875 14.2649 15.975L15.2849 17.01L16.8749 14.61C16.948 14.4994 17.0699 14.4394 17.1899 14.415ZM6.71988 15.84H11.5199C11.7861 15.84 11.9999 16.0556 11.9999 16.32C11.9999 16.5844 11.7861 16.8 11.5199 16.8H6.71988C6.45363 16.8 6.23988 16.5844 6.23988 16.32C6.23988 16.0556 6.45363 15.84 6.71988 15.84Z" />
</svg>
