<svg width="20" height="20" viewBox="0 0 20 20" fill="none" xmlns="http://www.w3.org/2000/svg">
<path d="M10.0001 0.400024C6.47197 0.400024 3.6001 3.2719 3.6001 6.80002C3.6001 12.4453 9.45166 19.1782 9.7001 19.4625C9.77666 19.55 9.88447 19.6 10.0001 19.6C10.1235 19.5922 10.2235 19.55 10.3001 19.4625C10.5485 19.1735 16.4001 12.325 16.4001 6.80002C16.4001 3.2719 13.5282 0.400024 10.0001 0.400024Z"/>
<path d="M9.08714 10C9.02489 10 8.96412 9.98761 8.90486 9.96283C8.84584 9.93834 8.79142 9.89793 8.74162 9.84162L7.13538 8.02549C7.042 7.9199 6.99693 7.78784 7.00016 7.62931C7.00315 7.47107 7.05134 7.33916 7.14472 7.23357C7.23811 7.12798 7.3549 7.07518 7.49511 7.07518C7.63506 7.07518 7.75173 7.12798 7.84512 7.23357L9.08714 8.6379L12.1595 5.16402C12.2529 5.05843 12.3697 5.00381 12.5099 5.00015C12.6499 4.99677 12.7665 5.05139 12.8599 5.16402C12.9533 5.26961 13 5.40336 13 5.56526C13 5.72716 12.9533 5.86091 12.8599 5.9665L9.43267 9.84162C9.38287 9.89793 9.32845 9.93834 9.26943 9.96283C9.21016 9.98761 9.1494 10 9.08714 10Z" fill="#008B16"/>
</svg>
