<svg width="22" height="22" viewBox="0 0 22 22" fill="none" xmlns="http://www.w3.org/2000/svg">
<path fill-rule="evenodd" clip-rule="evenodd" d="M11 22C4.97619 22 0 17.0238 0 11C0 4.97619 4.96774 0 10.9916 0C17.0154 0 22 4.97619 22 11C22 17.0238 17.0238 22 11 22ZM9.64823 16.5253C9.96083 16.5253 10.2312 16.3817 10.4339 16.0691L16.1114 7.17281C16.2381 6.98694 16.3479 6.75883 16.3479 6.55607C16.3479 6.10829 15.9508 5.82949 15.5369 5.82949C15.2919 5.82949 15.0469 5.97312 14.861 6.26037L9.60599 14.616L6.80952 11.1098C6.58986 10.831 6.36175 10.7296 6.0914 10.7296C5.67742 10.7296 5.33103 11.0591 5.33103 11.5069C5.33103 11.7181 5.41551 11.9462 5.55914 12.1237L8.82028 16.0776C9.08218 16.3986 9.33564 16.5253 9.64823 16.5253Z" fill="#0099D8"/>
</svg>
