<svg width="14" height="14" viewBox="0 0 14 14" fill="none" xmlns="http://www.w3.org/2000/svg">
<g clip-path="url(#clip0_6171_61081)">
<path d="M7.00006 0.560059C3.44322 0.560059 0.560059 3.44322 0.560059 7.00006C0.560059 10.5569 3.44322 13.4401 7.00006 13.4401C10.5569 13.4401 13.4401 10.5569 13.4401 7.00006C13.4401 3.44322 10.5569 0.560059 7.00006 0.560059ZM7.00006 3.08006C7.46402 3.08006 7.84006 3.4561 7.84006 3.92006C7.84006 4.38402 7.46402 4.76006 7.00006 4.76006C6.5361 4.76006 6.16006 4.38402 6.16006 3.92006C6.16006 3.4561 6.5361 3.08006 7.00006 3.08006ZM8.12006 10.6401H7.56006H6.44006H5.88006V10.0801H6.44006V6.44006H5.88006V5.88006H6.44006H7.56006V6.44006V10.0801H8.12006V10.6401Z" fill="#949494"/>
</g>
<defs>
<clipPath id="clip0_6171_61081">
<rect width="14" height="14" fill="white"/>
</clipPath>
</defs>
</svg>
