<svg width="16" height="20" viewBox="0 0 16 20" fill="none" xmlns="http://www.w3.org/2000/svg">
<path d="M2.59459 0C1.16324 0 0 1.16957 0 2.6087V17.3913C0 18.8304 1.16324 20 2.59459 20H11.2432C12.6746 20 13.8378 18.8304 13.8378 17.3913V14.3563C13.6787 14.5163 13.1308 15.2096 12.1081 15.2174V17.3913C12.1081 17.8696 11.7189 18.2609 11.2432 18.2609H2.59459C2.11892 18.2609 1.72973 17.8696 1.72973 17.3913V2.6087C1.72973 2.13043 2.11892 1.73913 2.59459 1.73913H11.2432C11.7189 1.73913 12.1081 2.13043 12.1081 2.6087V4.78261C13.1334 4.79043 13.6835 5.48846 13.8378 5.64368V2.6087C13.8378 1.16957 12.6746 0 11.2432 0H2.59459ZM12.0828 6.08611C11.8614 6.08692 11.6408 6.17298 11.473 6.34341C11.1365 6.68428 11.1382 7.23562 11.4772 7.57388L13.0363 9.13043H6.46453C5.98712 9.13043 5.59966 9.52 5.59966 10C5.59966 10.48 5.98712 10.8696 6.46453 10.8696H13.0363L11.4772 12.4261C11.1382 12.7648 11.1365 13.3149 11.473 13.6557C11.6421 13.827 11.8634 13.913 12.0861 13.913C12.3067 13.913 12.5277 13.8295 12.6959 13.6608L15.7441 10.6174C15.9075 10.4543 16 10.2317 16 10C16 9.76826 15.9075 9.54612 15.7441 9.38264L12.6959 6.33916C12.5264 6.16982 12.3042 6.08529 12.0828 6.08611Z" />
</svg>
