<svg width="24" height="24" viewBox="0 0 24 24" fill="none" xmlns="http://www.w3.org/2000/svg">
<g clip-path="url(#clip0_839_11155)">
<path d="M12 0.5C11.5117 0.5 11.1154 0.896308 11.1154 1.38462V1.53666C11.1154 1.9595 10.8176 2.33677 10.4001 2.404C10.1975 2.43673 9.99698 2.47464 9.79883 2.51976C9.38837 2.61353 8.97327 2.38113 8.81227 1.99279L8.75353 1.85457C8.56688 1.40341 8.04969 1.18844 7.59766 1.37598C7.1465 1.56263 6.93153 2.07981 7.11907 2.53185L7.17781 2.67353C7.34058 3.06276 7.21042 3.52355 6.85126 3.74647C6.67788 3.85439 6.50872 3.96746 6.3433 4.08511C6.00007 4.33015 5.52528 4.27438 5.22716 3.97626L5.12004 3.86914C4.77416 3.52326 4.21414 3.52326 3.86914 3.86914C3.52414 4.21503 3.52414 4.77504 3.86914 5.12004L3.97626 5.22716C4.27438 5.52528 4.33015 5.99918 4.08511 6.3433C3.96746 6.50872 3.85439 6.67788 3.74647 6.85126C3.52355 7.21042 3.06192 7.34142 2.6718 7.17954L2.53185 7.12079C2.0807 6.93414 1.56179 7.14823 1.37425 7.59938C1.1876 8.05054 1.40169 8.56772 1.85284 8.75526L1.99106 8.81227C2.37941 8.97327 2.61353 9.38837 2.51976 9.79883C2.47464 9.99698 2.435 10.1975 2.40227 10.4001C2.33592 10.8167 1.9595 11.1154 1.53666 11.1154H1.38462C0.896308 11.1154 0.5 11.5117 0.5 12C0.5 12.4883 0.896308 12.8846 1.38462 12.8846H1.53666C1.9595 12.8846 2.33677 13.1824 2.404 13.5999C2.43673 13.8025 2.47464 14.003 2.51976 14.2012C2.61353 14.6116 2.38113 15.0267 1.99279 15.1877L1.85457 15.2465C1.40341 15.4331 1.18844 15.9503 1.37598 16.4023C1.56263 16.8535 2.07981 17.0685 2.53185 16.8809L2.67353 16.8222C3.06364 16.6603 3.52439 16.7905 3.7482 17.1487C3.85612 17.3221 3.9683 17.4921 4.08684 17.6584C4.33188 18.0017 4.27611 18.4764 3.97799 18.7746L3.86914 18.8817C3.52326 19.2276 3.52326 19.7876 3.86914 20.1326C4.21503 20.4776 4.77504 20.4785 5.12004 20.1326L5.22889 20.0255C5.52701 19.7274 6.00007 19.6698 6.3433 19.9149C6.50961 20.0334 6.67961 20.1473 6.85299 20.2553C7.21126 20.4782 7.34315 20.9398 7.18126 21.3299L7.12252 21.4699C6.93587 21.921 7.14996 22.4399 7.60111 22.6275C8.05227 22.8141 8.56945 22.6 8.75699 22.1489L8.814 22.0107C8.975 21.6223 9.39009 21.3882 9.80056 21.482C9.99871 21.5271 10.1992 21.5667 10.4018 21.5995C10.8167 21.664 11.1154 22.0405 11.1154 22.4633V22.6154C11.1154 23.1037 11.5117 23.5 12 23.5C12.4883 23.5 12.8846 23.1037 12.8846 22.6154V22.4633C12.8846 22.0405 13.1824 21.6632 13.5999 21.596C13.8025 21.5633 14.003 21.5254 14.2012 21.4802C14.6116 21.3865 15.0267 21.6189 15.1877 22.0072L15.2465 22.1454C15.4331 22.5966 15.9503 22.8116 16.4023 22.624C16.8535 22.4374 17.0685 21.9202 16.8809 21.4681L16.8222 21.3265C16.6603 20.9364 16.7905 20.4756 17.1487 20.2518C17.3221 20.1439 17.4921 20.0317 17.6584 19.9132C18.0017 19.6681 18.4764 19.7239 18.7746 20.022L18.8817 20.1309C19.2276 20.4767 19.7876 20.4767 20.1326 20.1309C20.4776 19.785 20.4785 19.225 20.1326 18.88L20.0255 18.7711C19.7274 18.473 19.6698 17.9999 19.9149 17.6567C20.0334 17.4904 20.1473 17.3204 20.2553 17.147C20.4782 16.7887 20.9398 16.6569 21.3299 16.8187L21.4699 16.8775C21.921 17.0641 22.4399 16.85 22.6275 16.3989C22.8141 15.9477 22.6 15.4306 22.1489 15.243L22.0107 15.186C21.6223 15.025 21.3882 14.6099 21.482 14.1994C21.5271 14.0013 21.5667 13.8008 21.5995 13.5982C21.664 13.1833 22.0405 12.8846 22.4633 12.8846H22.6154C23.1037 12.8846 23.5 12.4883 23.5 12C23.5 11.5117 23.1037 11.1154 22.6154 11.1154H22.4633C22.0405 11.1154 21.6632 10.8176 21.596 10.4001C21.5633 10.1975 21.5254 9.99698 21.4802 9.79883C21.3865 9.38837 21.6189 8.97327 22.0072 8.81227L22.1454 8.75353C22.5966 8.56688 22.8116 8.04969 22.624 7.59766C22.4374 7.1465 21.9202 6.93153 21.4681 7.11907L21.3265 7.17781C20.9364 7.33969 20.4756 7.20953 20.2518 6.85126C20.1439 6.67788 20.0317 6.50788 19.9132 6.34157C19.6681 5.99834 19.7239 5.52355 20.022 5.22544L20.1309 5.11831C20.4767 4.77243 20.4767 4.21241 20.1309 3.86741C19.785 3.52153 19.225 3.52153 18.88 3.86741L18.7728 3.97626C18.4747 4.27438 17.9999 4.33188 17.6567 4.08684C17.4904 3.9683 17.3204 3.85439 17.147 3.74647C16.7887 3.52355 16.6586 3.06192 16.8205 2.6718L16.8792 2.53185C17.0659 2.0807 16.8518 1.56179 16.4006 1.37425C15.9495 1.1876 15.4323 1.40169 15.2447 1.85284L15.186 1.99106C15.025 2.37941 14.6099 2.61353 14.1994 2.51976C14.0013 2.47464 13.8008 2.435 13.5982 2.40227C13.1824 2.33592 12.8846 1.9595 12.8846 1.53666V1.38462C12.8846 0.896308 12.4883 0.5 12 0.5ZM12 4.92308C15.608 4.92308 18.5803 7.62547 19.0165 11.1154H13.5291C13.3741 10.8469 13.1512 10.6238 12.8828 10.4686C12.6145 10.3133 12.31 10.2313 12 10.2308C11.9994 10.2308 11.9988 10.2308 11.9983 10.2308L9.25458 5.47596C10.099 5.12011 11.0262 4.92308 12 4.92308ZM7.72724 6.36749L10.4692 11.1154C10.3134 11.3842 10.2312 11.6893 10.2308 12C10.2318 12.3095 10.314 12.6134 10.4692 12.8812L7.72551 17.6308C6.02568 16.3382 4.92308 14.3001 4.92308 12C4.92308 9.69907 6.02631 7.66004 7.72724 6.36749ZM13.5308 12.8846H19.0165C18.5803 16.3745 15.608 19.0769 12 19.0769C11.0262 19.0769 10.099 18.8799 9.25458 18.524L11.9983 13.7692C11.9988 13.7692 11.9994 13.7692 12 13.7692C12.3103 13.769 12.6151 13.6871 12.8838 13.5318C13.1525 13.3766 13.3756 13.1534 13.5308 12.8846Z" />
</g>
<defs>
<clipPath id="clip0_839_11155">
<rect width="24" height="24" fill="white"/>
</clipPath>
</defs>
</svg>
